<?xml version="1.0" encoding="utf-8"?>
<!-- Generator: Adobe Illustrator 25.1.0, SVG Export Plug-In . SVG Version: 6.00 Build 0)  -->
<svg version="1.1" id="Vrstva_1" xmlns="http://www.w3.org/2000/svg" xmlns:xlink="http://www.w3.org/1999/xlink" x="0px" y="0px"
	 viewBox="0 0 2242 347.7" style="enable-background:new 0 0 2242 347.7;" xml:space="preserve">
<style type="text/css">
	.st0{fill:#716FEF;}
	.st1{fill:#FFFFFF;}
	.st2{fill:none;stroke:#707070;}
</style>
<g>
	<path class="st0" d="M2233.9,347.7C2166.9,151.8,1694.2,0,1121,0S75.1,151.8,8.1,347.7H2233.9z"/>
	<path class="st0" d="M1101.9,790.9c6.3,0,12.7,0.1,19.1,0.1s12.7,0,19.1-0.1H1101.9z"/>
</g>
<g id="Rectangle_106">
	<path class="st1" d="M890,148.3h166c14.4,0,26,11.6,26,26l0,0c0,14.4-11.6,26-26,26H890c-14.4,0-26-11.6-26-26l0,0
		C864,160,875.6,148.3,890,148.3z"/>
	<path class="st2" d="M890,148.8h166c14.1,0,25.5,11.4,25.5,25.5l0,0c0,14.1-11.4,25.5-25.5,25.5H890c-14.1,0-25.5-11.4-25.5-25.5
		l0,0C864.5,160.2,875.9,148.8,890,148.8z"/>
</g>
<g id="Rectangle_106_1_">
	<path class="st1" d="M1186,148.3h166c14.4,0,26,11.6,26,26l0,0c0,14.4-11.6,26-26,26h-166c-14.4,0-26-11.6-26-26l0,0
		C1160,160,1171.6,148.3,1186,148.3z"/>
	<path class="st2" d="M1186,148.8h166c14.1,0,25.5,11.4,25.5,25.5l0,0c0,14.1-11.4,25.5-25.5,25.5h-166c-14.1,0-25.5-11.4-25.5-25.5
		l0,0C1160.5,160.2,1171.9,148.8,1186,148.8z"/>
</g>
<rect x="826.5" y="99.5" class="st0" width="588.3" height="144"/>
</svg>
